<?xml version="1.0" encoding="UTF-8"?>
<!DOCTYPE svg PUBLIC "-//W3C//DTD SVG 1.1//EN" "http://www.w3.org/Graphics/SVG/1.1/DTD/svg11.dtd">
<!-- Creator: CorelDRAW X8 -->
<svg xmlns="http://www.w3.org/2000/svg" xml:space="preserve" width="13.2815mm" height="15.8948mm" version="1.1" style="shape-rendering:geometricPrecision; text-rendering:geometricPrecision; image-rendering:optimizeQuality; fill-rule:evenodd; clip-rule:evenodd"
viewBox="0 0 1397 1671"
 xmlns:xlink="http://www.w3.org/1999/xlink">
 <defs>
  <style type="text/css">
   <![CDATA[
    .str1 {stroke:#373435;stroke-width:31.548}
    .str0 {stroke:#FEF45F;stroke-width:21.032}
    .fil2 {fill:none}
    .fil0 {fill:#FEF45F}
    .fil1 {fill:#FF3297}
   ]]>
  </style>
 </defs>
 <g id="Capa_x0020_1">
  <metadata id="CorelCorpID_0Corel-Layer"/>
  <polygon class="fil0 str0" points="614,129 234,557 429,648 441,654 416,682 122,1014 268,1070 371,1110 48,1616 713,1038 567,963 834,660 690,573 984,237 "/>
  <g>
   <path class="fil1" d="M364 1401l195 -18 -195 18zm638 -1385l-222 51 368 104 -309 355 132 85 -265 312 164 77 -648 551c26,-5 246,-99 277,-122l587 -452 -186 -76 292 -312 -151 -86 328 -378 -367 -109zm135 163l209 -38 -209 38zm-78 91l208 -35 -208 35zm-71 82l206 -30 -206 30zm-72 84l200 -27 -200 27zm-77 90l202 -23 -202 23zm132 85l221 -22 -221 22zm-67 79l214 -22 -214 22zm-66 77l205 -19 -205 19zm-69 82l199 -21 -199 21zm-63 74l194 -22 -194 22zm164 77l216 -23 -216 23zm-136 108l214 -25 -214 25zm-97 76l212 -24 -212 24zm-85 68l202 -19 -202 19zm-90 71l195 -15 -195 15z"/>
   <path id="1" class="fil2 str1" d="M364 1401l195 -18m443 -1367l-222 51 368 104 -309 355 132 85 -265 312 164 77 -648 551c26,-5 246,-99 277,-122l587 -452 -186 -76 292 -312 -151 -86 328 -378 -367 -109zm135 163l209 -38m-287 129l208 -35m-279 117l206 -30m-278 114l200 -27m-277 117l202 -23m-70 108l221 -22m-288 101l214 -22m-280 99l205 -19m-274 101l199 -21m-262 95l194 -22m-30 99l216 -23m-352 131l214 -25m-311 101l212 -24m-297 92l202 -19m-292 90l195 -15"/>
  </g>
  <polygon class="fil2 str1" points="722,83 373,519 568,610 580,616 555,644 261,976 407,1032 510,1072 229,1499 215,1521 850,1018 686,940 951,628 820,543 1121,193 "/>
 </g>
</svg>
